<?xml version="1.0" encoding="utf-8"?>
<!-- Generator: Adobe Illustrator 19.1.0, SVG Export Plug-In . SVG Version: 6.00 Build 0)  -->
<svg version="1.1" id="Layer_1" xmlns="http://www.w3.org/2000/svg" xmlns:xlink="http://www.w3.org/1999/xlink" x="0px" y="0px"
	 viewBox="0 0 300 300" style="enable-background:new 0 0 300 300;" xml:space="preserve">
<style type="text/css">
	.st0{fill:#FFFFFF;}
</style>
<g>
	<path class="st0" d="M157.4,47.9v29.9h-4.2c0,0-47.8-19.2-81.4,5c-19.4,17.3-21.8,31.2-23.1,37.3s-8.6,53.5,7.9,77.4
		s33.3,28.9,52.2,30.7c18.9,1.8,48.6-9.2,48.6-9.2v30.1c0,0-23.8,17.9-72.2,12c-48.3-6-68.9-50.8-68.9-50.8S4.2,185.4,4.9,149.5
		s9.1-54.1,19.6-69.3S62.8,42.6,93,38.6S147.8,44,157.4,47.9z"/>
	<polygon class="st0" points="189.2,79.8 189.2,258.1 225.4,258.1 225.4,187 287.3,187 287.3,158.6 226.6,158.6 226.6,108.2 
		295.1,108.2 291.1,79.8 	"/>
</g>
</svg>
