<?xml version="1.0" encoding="utf-8"?>
<!-- Generator: Adobe Illustrator 19.1.0, SVG Export Plug-In . SVG Version: 6.00 Build 0)  -->
<svg version="1.1" xmlns="http://www.w3.org/2000/svg" xmlns:xlink="http://www.w3.org/1999/xlink" x="0px" y="0px"
	 viewBox="0 0 300 300" style="enable-background:new 0 0 300 300;" xml:space="preserve">
<style type="text/css">
	.st0{display:none;}
	.st1{display:inline;fill:#00FF00;}
	.st2{display:inline;}
	.st3{fill:#FFFFFF;}
</style>
<g id="bg" class="st0">
	<rect class="st1" width="300" height="300"/>
</g>
<g id="Layer_1" class="st0">
	<g class="st2">
		<g>
			<path class="st3" d="M70.3,12.3h12.4v12.3h11.4V12.3h12.4v37.1H94.1V37H82.7v12.4H70.3L70.3,12.3L70.3,12.3z"/>
			<path class="st3" d="M122.8,24.6h-10.9V12.3h34.3v12.3h-10.9v24.8h-12.4L122.8,24.6L122.8,24.6z"/>
			<path class="st3" d="M151.6,12.3h12.9l8,13.1l8-13.1h13v37.1h-12.4V31l-8.5,13.2h-0.2L163.8,31v18.4h-12.1V12.3z"/>
			<path class="st3" d="M199.6,12.3H212v24.9h17.5v12.3h-29.9V12.3z"/>
		</g>
		<path class="st3" d="M247.3,66l-17.8,199.3l-79.8,22.3l-79.8-22.2L52.2,66H247.3z M211,107H88l7.1,74H180l-3.1,31.7l-27.2,7.4
			l-27.2-7.5l-1.7-19.6H96l3.6,38.6l50.1,13.9l50.1-13.7l6.7-74.8H117l-1.8-25H209L211,107z"/>
	</g>
</g>
<g id="Layer_2">
	<g>
		<polygon class="st3" points="106.9,42.8 106.9,31.5 123.4,31.5 123.4,19.2 94.6,19.2 94.6,54.1 123.4,54.1 123.4,42.8 		"/>
		<path class="st3" d="M153,31.5h11.5V19.2h-28.8c0,0,0,6.2,0,12.4c3.9,3.9,5.9,5.7,11.4,11.3c-3.3,0-11.4,0-11.4,0v11.3h28.8V42.8
			L153,31.5z"/>
		<path class="st3" d="M193.9,31.5h11.5V19.2h-28.8c0,0,0,6.2,0,12.4c3.9,3.9,5.9,5.7,11.4,11.3c-3.3,0-11.4,0-11.4,0v11.3h28.8
			V42.8L193.9,31.5z"/>
	</g>
	<path class="st3" d="M225.7,260.4c-0.1,0-75.7,20.4-75.7,20.4l-75.9-20.4L57,71h186C243,71,225.9,260.4,225.7,260.4z M208,109H91
		l2.6,23H153l-57.4,24.1l1.8,22.4l80.6,0.3l-1.8,29.9l-26.6,7.5l-25.5-6.5l-1.5-18.6H99l3.1,35.9l48,14.2l47.6-14l6.2-71.1H150
		l55.8-23.8L208,109z"/>
</g>
</svg>
