<?xml version="1.0" encoding="utf-8"?>
<!-- Generator: Adobe Illustrator 19.1.0, SVG Export Plug-In . SVG Version: 6.00 Build 0)  -->
<svg version="1.1" id="Layer_1" xmlns="http://www.w3.org/2000/svg" xmlns:xlink="http://www.w3.org/1999/xlink" x="0px" y="0px"
	 viewBox="0 0 300 300" style="enable-background:new 0 0 300 300;" xml:space="preserve">
<style type="text/css">
	.st0{fill:#FFFFFF;}
</style>
<g>
	<g>
		<path class="st0" d="M70.3,12.3h12.4v12.3h11.4V12.3h12.4v37.1H94.1V37H82.7v12.4H70.3L70.3,12.3L70.3,12.3z"/>
		<path class="st0" d="M122.8,24.6h-10.9V12.3h34.3v12.3h-10.9v24.8h-12.4L122.8,24.6L122.8,24.6z"/>
		<path class="st0" d="M151.6,12.3h12.9l8,13.1l8-13.1h13v37.1h-12.4V31l-8.5,13.2h-0.2L163.8,31v18.4h-12.1V12.3z"/>
		<path class="st0" d="M199.6,12.3H212v24.9h17.5v12.3h-29.9V12.3z"/>
	</g>
	<path class="st0" d="M247.3,66l-17.8,199.3l-79.8,22.3l-79.8-22.2L52.2,66H247.3z M211,107H88l7.1,74H180l-3.1,31.7l-27.2,7.4
		l-27.2-7.5l-1.7-19.6H96l3.6,38.6l50.1,13.9l50.1-13.7l6.7-74.8H117l-1.8-25H209L211,107z"/>
</g>
</svg>
