<?xml version="1.0" encoding="utf-8"?>
<!-- Generator: Adobe Illustrator 19.1.0, SVG Export Plug-In . SVG Version: 6.00 Build 0)  -->
<svg version="1.1" xmlns="http://www.w3.org/2000/svg" xmlns:xlink="http://www.w3.org/1999/xlink" x="0px" y="0px"
	 viewBox="0 0 300 300" style="enable-background:new 0 0 300 300;" xml:space="preserve">
<style type="text/css">
	.st0{display:none;}
	.st1{display:inline;fill:#00FF00;}
	.st2{display:inline;}
	.st3{fill:#FFFFFF;}
	.st4{display:inline;fill:#FFFFFF;}
</style>
<g id="bg" class="st0">
	<rect class="st1" width="300" height="300"/>
</g>
<g id="Layer_1" class="st0">
	<g class="st2">
		<g>
			<path class="st3" d="M70.3,12.3h12.4v12.3h11.4V12.3h12.4v37.1H94.1V37H82.7v12.4H70.3L70.3,12.3L70.3,12.3z"/>
			<path class="st3" d="M122.8,24.6h-10.9V12.3h34.3v12.3h-10.9v24.8h-12.4L122.8,24.6L122.8,24.6z"/>
			<path class="st3" d="M151.6,12.3h12.9l8,13.1l8-13.1h13v37.1h-12.4V31l-8.5,13.2h-0.2L163.8,31v18.4h-12.1V12.3z"/>
			<path class="st3" d="M199.6,12.3H212v24.9h17.5v12.3h-29.9V12.3z"/>
		</g>
		<path class="st3" d="M247.3,66l-17.8,199.3l-79.8,22.3l-79.8-22.2L52.2,66H247.3z M211,107H88l7.1,74H180l-3.1,31.7l-27.2,7.4
			l-27.2-7.5l-1.7-19.6H96l3.6,38.6l50.1,13.9l50.1-13.7l6.7-74.8H117l-1.8-25H209L211,107z"/>
	</g>
</g>
<g id="Layer_2" class="st0">
	<g class="st2">
		<polygon class="st3" points="106.9,42.8 106.9,31.5 123.4,31.5 123.4,19.2 94.6,19.2 94.6,54.1 123.4,54.1 123.4,42.8 		"/>
		<path class="st3" d="M153,31.5h11.5V19.2h-28.8c0,0,0,6.2,0,12.4c3.9,3.9,5.9,5.7,11.4,11.3c-3.3,0-11.4,0-11.4,0v11.3h28.8V42.8
			L153,31.5z"/>
		<path class="st3" d="M193.9,31.5h11.5V19.2h-28.8c0,0,0,6.2,0,12.4c3.9,3.9,5.9,5.7,11.4,11.3c-3.3,0-11.4,0-11.4,0v11.3h28.8
			V42.8L193.9,31.5z"/>
	</g>
	<path class="st4" d="M225.7,260.4c-0.1,0-75.7,20.4-75.7,20.4l-75.9-20.4L57,71h186C243,71,225.9,260.4,225.7,260.4z M208,109H91
		l2.6,23H153l-57.4,24.1l1.8,22.4l80.6,0.3l-1.8,29.9l-26.6,7.5l-25.5-6.5l-1.5-18.6H99l3.1,35.9l48,14.2l47.6-14l6.2-71.1H150
		l55.8-23.8L208,109z"/>
</g>
<g id="Layer_4">
	<g>
		<path class="st3" d="M50.7,195c-1.6,8.7-4.7,22.7-7.1,32.5c-1.5,6.1-2.5,10.6-6.7,13.8c-0.4,0.3-0.6,0.2-0.9,0.4
			c-0.8,0.7-4.3,1.6-6.2,1.8c-3.2,0.3-6.8,0-10.6,0c1-3.7,2.2-8.2,3.1-11.5c9.5,1.1,9.7-7.8,11.6-16.5c1.1-5,4.3-18.5,4.9-20.5
			C42.7,195,46.7,195,50.7,195z"/>
		<path class="st3" d="M245.7,192.1c0,0-13.3,0.2-20.5,0.2c-1.7,0-6.2,0-6.2,0l-7.6,32.9h-11.6c0,0,7.2-35.8,8.9-42.3
			c0.6-2.1,3.8-1.7,9.2-1.7c2.7,0,6.5,0,8.7,0c5.6,0,12.2-0.7,14.9,0.9C244.2,183.7,245.7,192.1,245.7,192.1z"/>
		<path class="st3" d="M130.2,181.1c0,0-3.3,15.8-4.7,23.7c-0.5,2.8-1.5,5.5-0.4,7.6c1,2,2.4,2.1,6.7,2.2c1.4,0,5.8,0,5.8,0l8-33.4
			l11.2-0.1c0,0-6.3,29.7-9.4,44.1c-4.8,0-8.9,0-12.9,0c-9,0-17.1,1.1-20.5-5.3c-3.3-6.3-0.2-16.6,1.3-23.6c1.1-5,3.3-15.1,3.3-15.1
			L130.2,181.1z"/>
		<path class="st3" d="M53.9,181.2c-0.7,3.4-1.5,7.3-2.3,10.6c-4.2,0-8.3,0-12.5,0c1-3.7,1.7-7.4,2.7-10.7
			C45.8,181.2,49.5,181.2,53.9,181.2z"/>
		<path class="st3" d="M187.7,198.2l-17.2-0.1c0,0-0.2-7.5,9.9-7.1c3.6,0.1,4.8,0.6,6.2,2.7C188.1,196.1,187.7,198.2,187.7,198.2z
			 M198.6,189.7c-0.4-1.3-0.7-3.1-1.3-4c-2.4-3.4-7.4-4.6-10.7-4.9c-8.7-0.9-16,1.4-20,4.5c-1.2,0.9-2.2,1.6-3.1,2.7
			c-0.3,0.4-0.7,0.8-1,1.2c-0.3,0.4-0.6,0.6-0.8,1c-0.4,0.6-0.8,1.6-1.2,2.6c-0.4,0.8-0.7,1.6-1,2.3c-2.4,6-4.9,17.3-2.7,23.1
			c0.3,0.9,1.1,2,1.3,2.3c0.3,0.4,0.6,0.9,0.9,1.3c1.2,1.3,3,2.2,4.9,2.7c9.6,2.3,28.9,1.3,28.9,1.3l2.4-10.5c0,0-13.6,0.6-20.2-0.2
			c-1-0.1-3.7-0.3-5.1-1.5c-1.2-1.1-2.6-3.6-1.6-5.2c0.7-1.2,3.7-0.8,6.2-0.9c8-0.2,22.7,0,22.7,0S200.1,195,198.6,189.7z"/>
		<path class="st3" d="M281.3,174.9c0,0-25.5,34.6-27.6,37.4c-0.7,0.9-1.7,1.9-2.2,3.1c-1.3,3.1-2.7,9.8-2.7,9.8l-12.6,0.1
			c0,0,2-7,1.9-10.7c-0.1-3.3-1.7-6.5-2.7-9.8c-0.9-3.3-2.2-9.8-2.2-9.8h12.9l1.8,7.1l19.7-27.2L281.3,174.9z"/>
		<path class="st3" d="M89.5,214.1c-9-0.1-17.4,1.2-20-4.5c-1.5-3.2-0.8-7.5,0-11.6c1.1-5.5,2.2-9.5,5.3-12.9
			c2.4-2.6,8.6-5.9,15.1-3.6c2.2,0.8,5.6,4.4,5.8,8.5c0.2,3.8-1.5,8.3-2.7,12.5C91.9,206.5,90.8,210.5,89.5,214.1z M108.6,186.1
			c-0.7-5-3.9-10.4-7.5-12.7c-0.1-0.1-0.8-0.6-1-0.7c-2.6-1.5-6.9-2.8-9.8-3.1c-15.1-1.6-24.2,5.2-29.4,14.2
			c-2,3.6-3.4,7.5-4.5,11.6c-1.2,4.6-2,10.1-1.3,15.1c0.4,3,2.1,7.3,4.5,9.8c5.9,6.1,17.5,5.3,29.8,5.3c3.8,0,12.9-0.1,15.6-0.1
			c0.9,0,3.4-10.4,3.2-10.7c-0.2-0.3-3.2,0.1-6.7-0.2C105,205.7,109.9,195.4,108.6,186.1z"/>
	</g>
	<path class="st3" d="M-54.9,266.4"/>
	<path class="st3" d="M101.1,49.8c-0.3,0,2.5-4.4,2.2-4.4c-20.9,20.2-19.1,47.3-9,66.8c7,13.6,19.8,26.3,35.1,33.1
		c7.1,3.2,17.9,6.1,29.2,5.8c24.3-0.5,41.3-12,50.9-30.7l0.6-1.5c-8.5,8.6-22.3,14.5-33.1,15.6c-45.1,4.6-91.5-35.8-76.5-83
		L101.1,49.8z"/>
	<path class="st3" d="M213,86.8c-7,7.4-18.9,12.8-30.2,12.7c-25.4-0.2-53.9-22.9-50.7-54.6c0.3-2.7,1.4-7,4.3-12.6
		c-8.4,10.6-13.5,19.4-12.1,34c2,20.1,21,40.2,40.9,42.9C189.1,112.4,206.9,102.4,213,86.8"/>
	<path class="st3" d="M211.9,60.1c-15.2,10.4-24.7,6.9-29.2,5.6c-1-0.3-3.3-1.3-5.4-2.6c-4.7-2.8-7-4.1-10.7-9.5
		c-2-2.9-4-7.6-4.7-10.3c-1.1-4.4-0.8-11.2,1.3-17.1c-6.9,6.2-8,18-5.6,25.9c0.3,1,1.9,4.9,2.8,6.3c6,9.6,17.3,18,35.1,14.2
		C200,71.8,210.1,64.2,211.9,60.1"/>
	<path class="st3" d="M211.9,60.1"/>
</g>
</svg>
